<?xml version="1.0" encoding="utf-8"?>
<!-- Generator: Adobe Illustrator 22.0.0, SVG Export Plug-In . SVG Version: 6.00 Build 0)  -->
<svg version="1.1" id="Capa_1" xmlns="http://www.w3.org/2000/svg" xmlns:xlink="http://www.w3.org/1999/xlink" x="0px" y="0px"
	 viewBox="0 0 853.5 183" style="enable-background:new 0 0 853.5 183;" xml:space="preserve">
<style type="text/css">
	.st0{fill:none;stroke:#D4B083;stroke-width:5;stroke-linecap:round;stroke-linejoin:round;stroke-miterlimit:10;}
	.st1{fill:#FFFFFF;}
	.st2{fill:none;}
</style>
<path class="st0" d="M435.1,134.9c6.2-3.6,8.7-11.7,4.9-18.3c-3.8-6.6-12.1-8.5-18.3-4.9c-6.2,3.6-8.7,11.7-4.9,18.3
	C420.6,136.5,428.9,138.4,435.1,134.9l143.2-82.6c6.2-3.6,8.7-11.7,4.9-18.3c-3.8-6.6-11.3-8.9-18.3-4.9l-36.8,21.2
	c0,0-18.5-15.1-40.2-2.6l-77.4,44.7c-17,9.8-22.9,31.8-13.1,48.8c9.8,17,31.8,22.9,48.8,13.1l77.4-44.7
	c20.9-12.1,17.8-36.1,17.8-36.1"/>
<path class="st1" d="M35.9,85.5h-9.6v18.8c0,2.2,0.4,3.7,1.2,4.7c0.8,0.9,2.1,1.4,3.9,1.4c0.7,0,1.4-0.1,2.1-0.2
	c0.8-0.1,1.5-0.3,2.1-0.6l0.2,5.9c-0.9,0.3-1.8,0.5-2.9,0.7c-1,0.2-2.1,0.3-3.2,0.3c-3.4,0-6-0.9-7.8-2.8c-1.8-1.9-2.7-4.7-2.7-8.5
	V85.5h-7v-5.9h7V69.2h7.1v10.4h9.6V85.5z"/>
<path class="st1" d="M68.9,115.8c-0.1-0.9-0.2-2-0.2-3.1c-0.1-1.1-0.1-2.1-0.1-2.9h-0.2c-0.9,1.9-2.5,3.6-4.6,4.9
	c-2.2,1.3-4.6,2-7.2,2c-2.3,0-4.4-0.4-6.1-1.1c-1.7-0.8-3.1-1.8-4.2-3.2c-1.1-1.3-1.9-2.9-2.4-4.7c-0.5-1.8-0.8-3.7-0.8-5.7V79.6
	h7.2v20c0,1.5,0.1,2.9,0.3,4.2c0.2,1.4,0.6,2.5,1.3,3.6c0.6,1,1.5,1.8,2.5,2.4c1.1,0.6,2.4,0.9,4.1,0.9c2.9,0,5.2-1.1,7-3.2
	c1.8-2.2,2.7-5.1,2.7-8.7V79.6h7.2V108c0,1,0,2.2,0.1,3.7c0.1,1.5,0.1,2.9,0.2,4.1H68.9z"/>
<rect x="88" y="58.1" class="st1" width="7.2" height="57.8"/>
<path class="st1" d="M116.1,66.5c0,1.3-0.5,2.4-1.4,3.3c-0.9,0.9-2.1,1.3-3.4,1.3s-2.4-0.4-3.3-1.3c-0.9-0.9-1.4-2-1.4-3.2
	c0-1.3,0.5-2.4,1.4-3.3c0.9-0.9,2-1.3,3.3-1.3s2.4,0.4,3.4,1.3C115.6,64.1,116.1,65.2,116.1,66.5 M115,115.8h-7.2V79.6h7.2V115.8z"
	/>
<path class="st1" d="M152.9,88.8c-0.8-1.2-1.9-2.2-3.4-2.9c-1.5-0.8-3.2-1.2-4.9-1.2c-1.9,0-3.6,0.4-5,1.1c-1.5,0.7-2.7,1.7-3.7,2.9
	c-1,1.2-1.8,2.6-2.3,4.2c-0.5,1.6-0.8,3.2-0.8,5c0,1.7,0.3,3.4,0.8,5c0.5,1.6,1.3,3,2.3,4.2c1,1.2,2.3,2.2,3.7,2.9
	c1.5,0.7,3.2,1.1,5,1.1c1.8,0,3.5-0.4,5-1.1c1.5-0.7,2.7-1.7,3.7-2.9l4.8,4.4c-1.5,1.8-3.4,3.2-5.7,4.2c-2.3,1-4.9,1.5-7.8,1.5
	c-2.8,0-5.4-0.5-7.8-1.4c-2.4-0.9-4.4-2.2-6.2-3.9c-1.7-1.7-3.1-3.7-4.1-6c-1-2.3-1.5-5-1.5-7.9c0-2.9,0.5-5.5,1.5-7.8
	c1-2.3,2.3-4.4,4.1-6c1.7-1.7,3.8-3,6.2-3.9c2.4-0.9,4.9-1.4,7.7-1.4c2.5,0,5.1,0.5,7.6,1.5c2.5,1,4.5,2.5,6,4.4L152.9,88.8z"/>
<path class="st1" d="M201.9,97.6c0,2.8-0.5,5.4-1.5,7.7c-1,2.3-2.4,4.4-4.1,6.1c-1.8,1.7-3.8,3-6.2,4c-2.4,0.9-5,1.4-7.7,1.4
	c-2.8,0-5.3-0.5-7.7-1.4c-2.4-0.9-4.5-2.3-6.2-4c-1.7-1.7-3.1-3.7-4.1-6.1c-1-2.3-1.5-4.9-1.5-7.7s0.5-5.4,1.5-7.7
	c1-2.3,2.4-4.3,4.1-6c1.7-1.7,3.8-3,6.2-3.9c2.4-0.9,5-1.4,7.7-1.4c2.8,0,5.3,0.5,7.7,1.4c2.4,0.9,4.5,2.3,6.2,3.9
	c1.8,1.7,3.1,3.7,4.1,6C201.4,92.3,201.9,94.8,201.9,97.6 M194.4,97.7c0-1.7-0.3-3.4-0.8-5c-0.5-1.6-1.3-3-2.3-4.2
	c-1-1.2-2.3-2.1-3.8-2.9c-1.5-0.7-3.2-1.1-5.2-1.1c-1.9,0-3.7,0.4-5.2,1.1c-1.5,0.7-2.8,1.7-3.8,2.9c-1,1.2-1.8,2.6-2.3,4.2
	c-0.5,1.6-0.8,3.2-0.8,5c0,1.7,0.3,3.4,0.8,5c0.5,1.6,1.3,3,2.3,4.2c1,1.2,2.3,2.2,3.8,2.9c1.5,0.7,3.2,1.1,5.2,1.1
	c1.9,0,3.7-0.4,5.2-1.1c1.5-0.7,2.8-1.7,3.8-2.9c1-1.2,1.8-2.6,2.3-4.2C194.2,101.1,194.4,99.4,194.4,97.7"/>
<path class="st1" d="M211.8,83.7c-0.1-1.5-0.1-2.9-0.2-4.1h6.8c0.1,0.9,0.2,2,0.2,3.2c0.1,1.2,0.1,2.2,0.1,2.9h0.2
	c1-2.1,2.5-3.9,4.5-5.2c2-1.3,4.2-1.9,6.6-1.9c1.1,0,2.1,0.1,2.8,0.3l-0.3,6.6c-1-0.3-2.1-0.4-3.3-0.4c-1.7,0-3.2,0.3-4.5,1
	c-1.3,0.6-2.3,1.5-3.2,2.6c-0.8,1.1-1.5,2.3-1.9,3.7c-0.4,1.4-0.6,2.9-0.6,4.4v19h-7.2V87.4C211.9,86.4,211.8,85.2,211.8,83.7"/>
<path class="st1" d="M272,97.4v1.2c0,0.4,0,0.8-0.1,1.2h-28.8c0,1.5,0.4,2.9,1,4.3c0.6,1.3,1.5,2.5,2.6,3.5c1.1,1,2.3,1.8,3.7,2.3
	c1.4,0.6,2.9,0.8,4.5,0.8c2.4,0,4.6-0.5,6.3-1.6c1.8-1.1,3.2-2.4,4.2-3.9l5,4.1c-1.9,2.6-4.2,4.5-6.8,5.7c-2.6,1.2-5.5,1.8-8.8,1.8
	c-2.8,0-5.3-0.5-7.6-1.4c-2.3-0.9-4.4-2.2-6-3.9c-1.7-1.7-3-3.7-4-6c-1-2.3-1.5-4.9-1.5-7.8c0-2.8,0.5-5.4,1.4-7.8
	c0.9-2.4,2.3-4.4,3.9-6.1c1.7-1.7,3.7-3,6-3.9c2.3-0.9,4.8-1.4,7.4-1.4c2.7,0,5.1,0.4,7.2,1.3c2.2,0.9,4,2.1,5.5,3.7
	c1.5,1.6,2.7,3.6,3.5,5.9C271.6,91.9,272,94.5,272,97.4 M264.7,94.5c-0.1-1.4-0.3-2.8-0.7-4c-0.4-1.2-1.1-2.3-1.9-3.2
	c-0.8-0.9-1.9-1.6-3.1-2.2c-1.2-0.5-2.7-0.8-4.4-0.8c-1.5,0-3,0.3-4.3,0.8c-1.4,0.5-2.5,1.3-3.5,2.2c-1,0.9-1.8,2-2.4,3.2
	c-0.6,1.3-1,2.6-1.1,4H264.7z"/>
<path class="st1" d="M281.9,83.7c-0.1-1.5-0.1-2.9-0.2-4.1h6.8c0.1,0.9,0.2,2,0.2,3.2c0.1,1.2,0.1,2.2,0.1,2.9h0.2
	c1-2.1,2.5-3.9,4.5-5.2c2-1.3,4.2-1.9,6.6-1.9c1.1,0,2.1,0.1,2.8,0.3l-0.3,6.6c-1-0.3-2.1-0.4-3.3-0.4c-1.7,0-3.2,0.3-4.5,1
	c-1.3,0.6-2.3,1.5-3.2,2.6c-0.8,1.1-1.5,2.3-1.9,3.7c-0.4,1.4-0.6,2.9-0.6,4.4v19H282V87.4C282,86.4,281.9,85.2,281.9,83.7"/>
<path class="st1" d="M331.2,92.4c0-2.7-0.8-4.7-2.4-6c-1.6-1.3-3.8-1.9-6.5-1.9c-2,0-4,0.4-5.8,1.2c-1.8,0.8-3.3,1.8-4.5,3l-3.8-4.6
	c1.8-1.7,4-3,6.5-4c2.6-1,5.3-1.5,8.3-1.5c2.6,0,4.9,0.4,6.8,1.1c1.9,0.7,3.5,1.7,4.7,3c1.2,1.3,2.1,2.8,2.8,4.5
	c0.6,1.7,0.9,3.6,0.9,5.6v15.8c0,1.2,0,2.5,0.1,3.9c0.1,1.4,0.2,2.5,0.4,3.3h-6.5c-0.4-1.7-0.6-3.5-0.6-5.2h-0.2
	c-1.3,1.9-3,3.4-5,4.5c-2,1.1-4.4,1.6-7.1,1.6c-1.4,0-2.9-0.2-4.5-0.6c-1.6-0.4-3-1-4.2-1.9c-1.3-0.9-2.3-2-3.2-3.4
	c-0.8-1.4-1.3-3.2-1.3-5.3c0-2.8,0.7-4.9,2.2-6.5c1.5-1.6,3.4-2.8,5.8-3.7c2.4-0.8,5.1-1.4,8.1-1.6c3-0.3,6-0.4,9.1-0.4V92.4z
	 M329.4,98.6c-1.8,0-3.6,0.1-5.5,0.2c-1.9,0.2-3.6,0.5-5.2,0.9c-1.6,0.5-2.8,1.1-3.9,2.1c-1,0.9-1.5,2.1-1.5,3.7
	c0,1.1,0.2,2,0.6,2.7c0.4,0.7,1,1.3,1.7,1.8c0.7,0.5,1.5,0.8,2.4,1c0.9,0.2,1.8,0.3,2.7,0.3c3.4,0,5.9-1,7.8-3
	c1.8-2,2.7-4.5,2.7-7.6v-1.9H329.4z"/>
<path class="st1" d="M618.1,111.2c0,1.3-0.5,2.5-1.5,3.5c-1,1-2.2,1.5-3.7,1.5c-1.4,0-2.6-0.5-3.6-1.5c-1-1-1.5-2.2-1.5-3.5
	c0-1.4,0.5-2.6,1.5-3.6c1-1,2.2-1.5,3.7-1.5c1.5,0,2.7,0.5,3.7,1.5C617.6,108.7,618.1,109.9,618.1,111.2"/>
<path class="st1" d="M665.8,97.6c0,2.8-0.5,5.4-1.5,7.7c-1,2.3-2.4,4.4-4.1,6.1c-1.8,1.7-3.8,3-6.2,4c-2.4,0.9-5,1.4-7.7,1.4
	c-2.7,0-5.3-0.5-7.7-1.4c-2.4-0.9-4.5-2.3-6.2-4c-1.7-1.7-3.1-3.7-4.1-6.1c-1-2.3-1.5-4.9-1.5-7.7s0.5-5.4,1.5-7.7
	c1-2.3,2.4-4.3,4.1-6c1.7-1.7,3.8-3,6.2-3.9c2.4-0.9,5-1.4,7.7-1.4c2.8,0,5.3,0.5,7.7,1.4c2.4,0.9,4.5,2.3,6.2,3.9
	c1.8,1.7,3.1,3.7,4.1,6C665.3,92.3,665.8,94.8,665.8,97.6 M658.3,97.7c0-1.7-0.3-3.4-0.8-5c-0.5-1.6-1.3-3-2.3-4.2
	c-1-1.2-2.3-2.1-3.8-2.9c-1.5-0.7-3.2-1.1-5.2-1.1c-1.9,0-3.7,0.4-5.2,1.1c-1.5,0.7-2.8,1.7-3.8,2.9c-1,1.2-1.8,2.6-2.3,4.2
	c-0.5,1.6-0.8,3.2-0.8,5c0,1.7,0.3,3.4,0.8,5c0.5,1.6,1.3,3,2.3,4.2c1,1.2,2.3,2.2,3.8,2.9c1.5,0.7,3.2,1.1,5.2,1.1
	c1.9,0,3.7-0.4,5.2-1.1c1.5-0.7,2.8-1.7,3.8-2.9c1-1.2,1.8-2.6,2.3-4.2C658.1,101.1,658.3,99.4,658.3,97.7"/>
<path class="st1" d="M682.3,79.6c0.1,0.9,0.2,1.9,0.2,3.1c0.1,1.1,0.1,2.1,0.1,2.9h0.2c0.5-1,1.1-1.9,1.9-2.7
	c0.8-0.8,1.7-1.6,2.7-2.2c1-0.6,2.1-1.1,3.4-1.5c1.2-0.4,2.5-0.5,3.8-0.5c2.3,0,4.4,0.4,6,1.2c1.7,0.8,3.1,1.8,4.2,3.2
	c1.1,1.3,2,2.9,2.5,4.7c0.5,1.8,0.8,3.7,0.8,5.7v22.5h-7.2V95.7c0-1.5-0.1-2.9-0.3-4.2c-0.2-1.3-0.6-2.5-1.3-3.5
	c-0.6-1-1.5-1.8-2.5-2.4c-1.1-0.6-2.4-0.9-4.1-0.9c-2.9,0-5.2,1.1-7,3.2c-1.8,2.2-2.7,5.1-2.7,8.7v19.3h-7.2V87.4c0-1,0-2.2-0.1-3.7
	c-0.1-1.5-0.1-2.9-0.2-4.1H682.3z"/>
<rect x="720.4" y="58.1" class="st1" width="7.2" height="57.8"/>
<path class="st1" d="M748.5,66.5c0,1.3-0.5,2.4-1.4,3.3c-0.9,0.9-2.1,1.3-3.4,1.3c-1.3,0-2.4-0.4-3.3-1.3c-0.9-0.9-1.4-2-1.4-3.2
	c0-1.3,0.5-2.4,1.4-3.3c0.9-0.9,2-1.3,3.3-1.3c1.3,0,2.4,0.4,3.4,1.3C748.1,64.1,748.5,65.2,748.5,66.5 M747.4,115.8h-7.2V79.6h7.2
	V115.8z"/>
<path class="st1" d="M766.4,79.6c0.1,0.9,0.2,1.9,0.2,3.1c0,1.1,0.1,2.1,0.1,2.9h0.2c0.5-1,1.1-1.9,1.9-2.7c0.8-0.8,1.7-1.6,2.7-2.2
	c1-0.6,2.1-1.1,3.4-1.5c1.2-0.4,2.5-0.5,3.8-0.5c2.3,0,4.4,0.4,6,1.2c1.7,0.8,3.1,1.8,4.2,3.2c1.1,1.3,1.9,2.9,2.5,4.7
	c0.5,1.8,0.8,3.7,0.8,5.7v22.5h-7.2V95.7c0-1.5-0.1-2.9-0.3-4.2c-0.2-1.3-0.6-2.5-1.3-3.5c-0.6-1-1.5-1.8-2.5-2.4
	c-1.1-0.6-2.4-0.9-4.1-0.9c-2.9,0-5.2,1.1-7,3.2c-1.8,2.2-2.7,5.1-2.7,8.7v19.3h-7.2V87.4c0-1,0-2.2-0.1-3.7
	c-0.1-1.5-0.1-2.9-0.2-4.1H766.4z"/>
<path class="st1" d="M838.2,97.4v1.2c0,0.4,0,0.8-0.1,1.2h-28.8c0.1,1.5,0.4,2.9,1,4.3c0.6,1.3,1.5,2.5,2.6,3.5
	c1.1,1,2.3,1.8,3.7,2.3c1.4,0.6,2.9,0.8,4.5,0.8c2.4,0,4.6-0.5,6.3-1.6s3.2-2.4,4.2-3.9l5,4.1c-1.9,2.6-4.2,4.5-6.8,5.7
	c-2.6,1.2-5.5,1.8-8.8,1.8c-2.8,0-5.3-0.5-7.6-1.4c-2.3-0.9-4.4-2.2-6-3.9c-1.7-1.7-3-3.7-4-6c-1-2.3-1.5-4.9-1.5-7.8
	c0-2.8,0.5-5.4,1.4-7.8c0.9-2.4,2.3-4.4,3.9-6.1c1.7-1.7,3.7-3,6-3.9c2.3-0.9,4.8-1.4,7.4-1.4c2.7,0,5.1,0.4,7.2,1.3
	c2.2,0.9,4,2.1,5.5,3.7c1.5,1.6,2.7,3.6,3.5,5.9C837.8,91.9,838.2,94.5,838.2,97.4 M830.9,94.5c-0.1-1.4-0.3-2.8-0.7-4
	c-0.4-1.2-1.1-2.3-1.9-3.2c-0.8-0.9-1.9-1.6-3.1-2.2c-1.2-0.5-2.7-0.8-4.4-0.8c-1.5,0-3,0.3-4.3,0.8c-1.4,0.5-2.5,1.3-3.5,2.2
	c-1,0.9-1.8,2-2.4,3.2c-0.6,1.3-1,2.6-1.1,4H830.9z"/>
<rect x="-174.8" y="-307" class="st2" width="1200" height="800"/>
<rect x="-174.8" y="-307" class="st2" width="1200" height="800"/>
</svg>
